<svg width="118" height="40" viewBox="0 0 118 40" fill="none" xmlns="http://www.w3.org/2000/svg">
<g clip-path="url(#clip0_580_592)">
<path d="M108.299 0H9.37577C9.01518 0 8.65892 2.32831e-10 8.29928 0.00213C7.99824 0.00413 7.69959 0.00994 7.39565 0.01483C6.73536 0.0227318 6.07661 0.0818063 5.42515 0.19154C4.7746 0.303663 4.14443 0.515046 3.55595 0.81854C2.96819 1.1246 2.43114 1.5223 1.96428 1.9972C1.49496 2.47077 1.10376 3.01815 0.805694 3.61829C0.50681 4.21724 0.299563 4.85907 0.191111 5.52161C0.0816274 6.18332 0.0227134 6.85265 0.0148975 7.52361C0.00577217 7.83021 0.0048085 8.13783 0 8.44447V31.5587C0.0048085 31.8692 0.00577217 32.17 0.0148975 32.4806C0.0227158 33.1516 0.0816298 33.8209 0.191111 34.4825C0.299264 35.1455 0.506523 35.7877 0.805694 36.3868C1.10362 36.985 1.49488 37.5302 1.96428 38.0011C2.42937 38.4781 2.96677 38.8761 3.55595 39.1798C4.14442 39.4841 4.77453 39.6968 5.42515 39.8106C6.07672 39.9195 6.7354 39.9786 7.39565 39.9874C7.69959 39.9942 7.99824 39.9981 8.29928 39.9981C8.65891 40.0001 9.0152 40.0001 9.37577 40.0001H108.299C108.653 40.0001 109.012 40.0001 109.365 39.9981C109.665 39.9981 109.972 39.9942 110.272 39.9874C110.931 39.9791 111.588 39.92 112.238 39.8106C112.891 39.696 113.523 39.4834 114.115 39.1798C114.703 38.8759 115.24 38.478 115.705 38.0011C116.173 37.5284 116.565 36.9836 116.867 36.3868C117.164 35.7872 117.369 35.1451 117.476 34.4825C117.585 33.8208 117.646 33.1516 117.658 32.4806C117.662 32.17 117.662 31.8692 117.662 31.5587C117.67 31.1954 117.67 30.8341 117.67 30.4649V9.53626C117.67 9.17005 117.67 8.80677 117.662 8.44447C117.662 8.13783 117.662 7.83021 117.658 7.52357C117.646 6.85255 117.585 6.18337 117.476 5.52157C117.369 4.85941 117.164 4.21763 116.867 3.61825C116.26 2.41533 115.297 1.43616 114.115 0.81845C113.523 0.515697 112.891 0.30437 112.238 0.19145C111.588 0.0812328 110.931 0.0221378 110.272 0.01469C109.972 0.00981 109.665 0.00395 109.365 0.002C109.012 0 108.653 0 108.299 0Z" fill="#A6A6A6"/>
<path d="M8.30402 39.125C8.00442 39.125 7.71205 39.1211 7.4148 39.1143C6.79902 39.1061 6.18468 39.0516 5.57682 38.9512C5.01001 38.8519 4.46093 38.6673 3.94769 38.4033C3.43915 38.1415 2.97532 37.7983 2.57397 37.3867C2.16681 36.98 1.82783 36.5082 1.57047 35.9902C1.31027 35.4688 1.13019 34.9099 1.03652 34.333C0.935358 33.7131 0.880626 33.0863 0.872794 32.458C0.86656 32.2471 0.858398 31.5449 0.858398 31.5449V8.44434C0.858398 8.44434 0.867091 7.75293 0.872844 7.5498C0.880342 6.92248 0.934756 6.29665 1.03561 5.67773C1.12946 5.09925 1.30968 4.53875 1.57002 4.01563C1.82644 3.49794 2.16353 3.02586 2.56824 2.61768C2.97249 2.20562 3.4378 1.8606 3.94721 1.59521C4.45927 1.33209 5.00731 1.14873 5.57297 1.05127C6.18283 0.949836 6.79931 0.894996 7.41722 0.88721L8.3045 0.875H109.36L110.258 0.8877C110.87 0.895099 111.481 0.94945 112.086 1.05029C112.657 1.14898 113.211 1.33362 113.729 1.59814C114.749 2.13299 115.58 2.97916 116.103 4.01807C116.36 4.53758 116.537 5.09351 116.63 5.66699C116.732 6.29099 116.789 6.92174 116.801 7.5542C116.803 7.8374 116.803 8.1416 116.803 8.44434C116.811 8.81934 116.811 9.17627 116.811 9.53613V30.4648C116.811 30.8281 116.811 31.1826 116.803 31.54C116.803 31.8652 116.803 32.1631 116.8 32.4697C116.788 33.0909 116.732 33.7104 116.632 34.3232C116.54 34.9043 116.361 35.4675 116.101 35.9932C115.841 36.5056 115.504 36.9733 115.102 37.3789C114.7 37.7927 114.235 38.1379 113.726 38.4014C113.209 38.6674 112.656 38.8527 112.086 38.9512C111.478 39.0522 110.863 39.1067 110.248 39.1143C109.959 39.1211 109.658 39.125 109.365 39.125L108.299 39.127L8.30402 39.125Z" fill="black"/>
<path d="M41.5973 27.1397H36.9428L35.825 30.4962H33.8535L38.2622 18.0782H40.3105L44.7192 30.4962H42.7141L41.5973 27.1397ZM37.4248 25.5909H41.1143L39.2955 20.1436H39.2446L37.4248 25.5909ZM54.2404 25.9698C54.2404 28.7833 52.7596 30.5909 50.525 30.5909C49.37 30.6523 48.282 30.0371 47.7239 29.0069H47.6816V33.4913H45.8542V21.4424H47.6231V22.9483H47.6567C48.2396 21.9245 49.3288 21.3096 50.4914 21.3477C52.7509 21.3477 54.2404 23.1641 54.2404 25.9698ZM52.3621 25.9698C52.3621 24.1368 51.4306 22.9317 50.0094 22.9317C48.6131 22.9317 47.674 24.1622 47.674 25.9698C47.674 27.794 48.6131 29.0157 50.0094 29.0157C51.4306 29.0157 52.3621 27.8194 52.3621 25.9698ZM64.0392 25.9698C64.0392 28.7833 62.5584 30.5909 60.3238 30.5909C59.1688 30.6523 58.0808 30.0371 57.5227 29.0069H57.4804V33.4913H55.6529V21.4424H57.4218V22.9483H57.4554C58.0383 21.9245 59.1275 21.3096 60.2902 21.3477C62.5497 21.3477 64.0392 23.1641 64.0392 25.9698ZM62.1608 25.9698C62.1608 24.1368 61.2293 22.9317 59.8081 22.9317C58.4119 22.9317 57.4727 24.1622 57.4727 25.9698C57.4727 27.794 58.4119 29.0157 59.8081 29.0157C61.2294 29.0157 62.1608 27.8194 62.1608 25.9698ZM70.5153 27.0362C70.6507 28.2676 71.8271 29.0762 73.4346 29.0762C74.9749 29.0762 76.0831 28.2676 76.0831 27.1572C76.0831 26.1934 75.4147 25.6162 73.8322 25.2207L72.2496 24.833C70.0073 24.2822 68.9664 23.2158 68.9664 21.4854C68.9664 19.3428 70.8025 17.8711 73.4096 17.8711C75.9899 17.8711 77.7588 19.3428 77.8183 21.4854H75.9736C75.8631 20.2461 74.8558 19.4981 73.3837 19.4981C71.9116 19.4981 70.9042 20.2549 70.9042 21.3565C70.9042 22.2344 71.5476 22.751 73.1215 23.1465L74.4669 23.4824C76.9723 24.0849 78.0132 25.1084 78.0132 26.9248C78.0132 29.248 76.1935 30.7031 73.2992 30.7031C70.5912 30.7031 68.7628 29.2822 68.6447 27.0361L70.5153 27.0362ZM81.9571 19.2999V21.4424H83.6501V22.9141H81.9571V27.9053C81.9571 28.6807 82.2961 29.042 83.0403 29.042C83.2413 29.0385 83.442 29.0241 83.6415 28.999V30.4619C83.3069 30.5255 82.9668 30.5543 82.6265 30.5479C80.824 30.5479 80.1211 29.8594 80.1211 28.1035V22.9141H78.8266V21.4424H80.1211V19.2999H81.9571ZM84.6306 25.9698C84.6306 23.1212 86.2804 21.3311 88.853 21.3311C91.4343 21.3311 93.0763 23.1211 93.0763 25.9698C93.0763 28.8262 91.4429 30.6085 88.853 30.6085C86.264 30.6085 84.6306 28.8262 84.6306 25.9698ZM91.2143 25.9698C91.2143 24.0157 90.3338 22.8624 88.853 22.8624C87.3722 22.8624 86.4926 24.0245 86.4926 25.9698C86.4926 27.9317 87.3722 29.0762 88.853 29.0762C90.3338 29.0762 91.2143 27.9317 91.2143 25.9698ZM94.583 21.4424H96.3259V22.9834H96.3682C96.6113 21.9914 97.5051 21.3087 98.5096 21.3477C98.7202 21.3469 98.9302 21.3702 99.1357 21.417V23.1553C98.8699 23.0727 98.5925 23.0348 98.3147 23.043C97.7774 23.0208 97.2575 23.2386 96.8914 23.6391C96.5253 24.0395 96.3496 24.5827 96.4104 25.126V30.4961H94.583V21.4424ZM107.561 27.837C107.315 29.4805 105.742 30.6084 103.728 30.6084C101.138 30.6084 99.5304 28.8438 99.5304 26.0127C99.5304 23.1729 101.147 21.3311 103.651 21.3311C106.114 21.3311 107.663 23.0518 107.663 25.7969V26.4336H101.375V26.5459C101.316 27.22 101.545 27.8872 102.003 28.3778C102.462 28.8685 103.105 29.1353 103.77 29.1104C104.657 29.1949 105.493 28.677 105.826 27.837L107.561 27.837ZM101.384 25.1348H105.835C105.868 24.5292 105.651 23.9369 105.237 23.5007C104.822 23.0645 104.247 22.8239 103.651 22.837C103.05 22.8333 102.472 23.074 102.047 23.5055C101.621 23.937 101.382 24.5236 101.384 25.1348Z" fill="white"/>
<path d="M37.1955 8.7315C37.9713 8.67488 38.7312 8.97505 39.266 9.54937C39.8008 10.1237 40.0542 10.9116 39.9563 11.6963C39.9563 13.6026 38.9432 14.6983 37.1955 14.6983H35.0762V8.7315H37.1955ZM35.9875 13.8545H37.0937C37.6482 13.8882 38.188 13.6661 38.5634 13.2498C38.9387 12.8334 39.1097 12.2673 39.0287 11.7085C39.1038 11.152 38.9304 10.5905 38.5559 10.1776C38.1815 9.76472 37.6452 9.54359 37.0937 9.57471H35.9875V13.8545ZM40.9858 12.4448C40.9098 11.6377 41.2904 10.8566 41.9679 10.4291C42.6453 10.0016 43.5025 10.0016 44.18 10.4291C44.8574 10.8566 45.238 11.6377 45.1621 12.4448C45.2394 13.2528 44.8592 14.0355 44.1812 14.4639C43.5031 14.8923 42.6447 14.8923 41.9667 14.4639C41.2886 14.0355 40.9084 13.2528 40.9858 12.4448ZM44.2632 12.4448C44.2632 11.4688 43.8321 10.898 43.0754 10.898C42.3158 10.898 41.8885 11.4688 41.8885 12.4448C41.8885 13.4287 42.3158 13.9951 43.0754 13.9951C43.8321 13.9951 44.2632 13.4248 44.2632 12.4448ZM50.7135 14.6982H49.807L48.8918 11.3818H48.8227L47.9114 14.6982H47.0135L45.793 10.1953H46.6793L47.4725 13.6313H47.5378L48.4482 10.1953H49.2865L50.1968 13.6313H50.266L51.0553 10.1953H51.9292L50.7135 14.6982ZM52.9557 10.1953H53.797V10.9106H53.8623C54.0893 10.384 54.62 10.0618 55.1836 10.1084C55.62 10.075 56.0477 10.2453 56.3458 10.5711C56.644 10.8969 56.7803 11.3429 56.7162 11.7832V14.6982H55.8424V12.0064C55.8424 11.2827 55.5332 10.9229 54.8869 10.9229C54.5909 10.9088 54.3036 11.027 54.1004 11.2463C53.8971 11.4657 53.7982 11.7643 53.8296 12.064V14.6982H52.9557V10.1953ZM58.1086 8.4375H58.9825V14.6982H58.1086V8.4375ZM60.1973 12.4448C60.1214 11.6377 60.502 10.8565 61.1795 10.429C61.857 10.0015 62.7143 10.0015 63.3918 10.429C64.0693 10.8565 64.4499 11.6377 64.374 12.4448C64.4513 13.2529 64.071 14.0355 63.3929 14.4639C62.7148 14.8923 61.8564 14.8923 61.1784 14.4639C60.5003 14.0355 60.12 13.2529 60.1973 12.4448ZM63.4747 12.4448C63.4747 11.4688 63.0435 10.898 62.2868 10.898C61.5273 10.898 61.1 11.4688 61.1 12.4448C61.1 13.4287 61.5273 13.9951 62.2868 13.9951C63.0436 13.9951 63.4747 13.4248 63.4747 12.4448ZM65.294 13.4248C65.294 12.6143 65.8875 12.147 66.9409 12.0806L68.1403 12.0103V11.6216C68.1403 11.146 67.8311 10.8775 67.2338 10.8775C66.7459 10.8775 66.4079 11.0596 66.3109 11.3779H65.4649C65.5542 10.6045 66.2696 10.1084 67.2741 10.1084C68.3842 10.1084 69.0103 10.6704 69.0103 11.6216V14.6983H68.1691V14.0654H68.0999C67.8142 14.5276 67.3062 14.7977 66.77 14.7724C66.3941 14.8122 66.0192 14.6884 65.738 14.4317C65.4567 14.1749 65.2955 13.8091 65.294 13.4248ZM68.1403 13.04V12.6636L67.059 12.7339C66.4492 12.7754 66.1726 12.9863 66.1726 13.3833C66.1726 13.7886 66.5183 14.0244 66.9937 14.0244C67.2751 14.0534 67.5561 13.965 67.7722 13.7794C67.9883 13.5939 68.1212 13.327 68.1403 13.04ZM70.1588 12.4448C70.1588 11.022 70.878 10.1206 71.9968 10.1206C72.5617 10.0941 73.0908 10.402 73.3546 10.9106H73.4199V8.4375H74.2938V14.6982H73.4564V13.9868H73.3873C73.1035 14.4912 72.5679 14.7939 71.9968 14.7724C70.8704 14.7725 70.1588 13.8711 70.1588 12.4448ZM71.0615 12.4448C71.0615 13.3999 71.5042 13.9746 72.2446 13.9746C72.9811 13.9746 73.4363 13.3916 73.4363 12.4487C73.4363 11.5103 72.9763 10.919 72.2446 10.919C71.509 10.919 71.0615 11.4976 71.0615 12.4448ZM77.9093 12.4448C77.8333 11.6377 78.2139 10.8566 78.8914 10.4291C79.5688 10.0016 80.426 10.0016 81.1035 10.4291C81.7809 10.8566 82.1615 11.6377 82.0856 12.4448C82.1629 13.2528 81.7827 14.0355 81.1047 14.4639C80.4266 14.8923 79.5682 14.8923 78.8902 14.4639C78.2121 14.0355 77.8319 13.2528 77.9093 12.4448ZM81.1867 12.4448C81.1867 11.4688 80.7555 10.898 79.9989 10.898C79.2393 10.898 78.812 11.4688 78.812 12.4448C78.812 13.4287 79.2393 13.9951 79.9989 13.9951C80.7556 13.9951 81.1867 13.4248 81.1867 12.4448ZM83.2581 10.1953H84.0993V10.9106H84.1646C84.3917 10.384 84.9223 10.0618 85.4859 10.1084C85.9224 10.075 86.35 10.2453 86.6482 10.5711C86.9463 10.8969 87.0826 11.3429 87.0185 11.7832V14.6982H86.1447V12.0064C86.1447 11.2827 85.8355 10.9229 85.1892 10.9229C84.8932 10.9088 84.6059 11.027 84.4027 11.2463C84.1995 11.4657 84.1006 11.7643 84.1319 12.064V14.6982H83.2581V10.1953ZM91.9563 9.07423V10.2158H92.9157V10.9644H91.9563V13.2798C91.9563 13.7515 92.1474 13.958 92.5824 13.958C92.6938 13.9577 92.8051 13.9508 92.9157 13.9375V14.6777C92.7587 14.7063 92.5997 14.7215 92.4403 14.7231C91.4685 14.7231 91.0815 14.3755 91.0815 13.5073V10.9643H90.3786V10.2158H91.0815V9.07423H91.9563ZM94.1093 8.4375H94.9755V10.919H95.0446C95.2826 10.3877 95.8225 10.0651 96.3947 10.1123C96.8287 10.0883 97.2506 10.2623 97.5454 10.5869C97.8403 10.9116 97.9775 11.353 97.9197 11.791V14.6982H97.0449V12.0103C97.0449 11.291 96.7155 10.9268 96.0981 10.9268C95.7941 10.9014 95.4946 11.0138 95.2796 11.2339C95.0646 11.454 94.9562 11.7594 94.9832 12.0683V14.6982H94.1093L94.1093 8.4375ZM103.015 13.4824C102.77 14.3318 101.962 14.8806 101.096 14.7852C100.506 14.801 99.9385 14.5521 99.5446 14.1046C99.1507 13.657 98.9702 13.056 99.0509 12.4609C98.9723 11.8643 99.1522 11.2623 99.5439 10.8109C99.9356 10.3596 100.501 10.1033 101.092 10.1084C102.325 10.1084 103.068 10.9644 103.068 12.3784V12.6885H99.9411V12.7383C99.9134 13.0724 100.026 13.4029 100.25 13.6485C100.475 13.8941 100.791 14.032 101.12 14.0283C101.548 14.0805 101.964 13.8648 102.174 13.4824L103.015 13.4824ZM99.9411 12.0313H102.178C102.2 11.7257 102.094 11.4247 101.887 11.2026C101.679 10.9804 101.389 10.8577 101.088 10.8648C100.782 10.8609 100.488 10.9825 100.273 11.2021C100.057 11.4218 99.9371 11.7208 99.9411 12.0313Z" fill="white"/>
<path d="M24.3564 20.2992C24.3778 18.6027 25.2524 17.0357 26.6736 16.1471C25.773 14.839 24.3185 14.0394 22.749 13.9894C21.0977 13.8132 19.4969 14.9943 18.6555 14.9943C17.7977 14.9943 16.5022 14.0069 15.1071 14.0361C13.2716 14.0964 11.6018 15.132 10.7088 16.764C8.80698 20.1124 10.2255 25.0334 12.0473 27.7401C12.9587 29.0654 14.0239 30.5459 15.4178 30.4934C16.7817 30.4358 17.2911 29.6089 18.9375 29.6089C20.5686 29.6089 21.0466 30.4934 22.4687 30.46C23.9322 30.4358 24.8544 29.1287 25.7338 27.7908C26.3887 26.8465 26.8926 25.8028 27.2269 24.6983C25.4887 23.9507 24.3584 22.2185 24.3564 20.2992ZM21.6703 12.2094C22.4683 11.2352 22.8614 9.98298 22.7662 8.71875C21.547 8.84897 20.4209 9.44153 19.6121 10.3784C18.8134 11.3027 18.4089 12.5119 18.4874 13.7397C19.7229 13.7527 20.896 13.1886 21.6703 12.2094Z" fill="white"/>
</g>
<defs>
<clipPath id="clip0_580_592">
<rect width="118" height="40" fill="white"/>
</clipPath>
</defs>
</svg>
