<svg width="1425" height="321" viewBox="0 0 1425 321" fill="none" xmlns="http://www.w3.org/2000/svg">
<g clip-path="url(#clip0_580_309)">
<g clip-path="url(#clip1_580_309)">
<g opacity="0.5">
<path d="M48.8352 236.985V222.746C21.9291 222.732 0.0999742 244.444 0.0146484 271.262H14.3067C14.3921 252.315 29.8218 236.985 48.8352 236.985Z" fill="#065BAA"/>
<path d="M97.6556 271.416L83.3635 271.431C83.3635 290.434 67.8911 305.85 48.835 305.85V320.088C59.7851 320.103 69.8963 316.515 78.0449 310.431C78.6706 309.963 79.282 309.481 79.8936 308.984C81.1024 307.991 82.2543 306.942 83.3635 305.836C83.9182 305.283 84.4586 304.715 84.9847 304.148C85.5108 303.567 86.0228 302.985 86.5206 302.375C87.0183 301.78 87.5018 301.156 87.9711 300.532C88.1986 300.22 88.4404 299.908 88.6679 299.582C89.123 298.943 89.5638 298.291 89.9762 297.639C90.1896 297.312 90.3887 296.972 90.602 296.646C91.6259 294.973 92.5361 293.228 93.3609 291.441C96.1339 285.329 97.6698 278.55 97.6698 271.402" fill="#3080C3"/>
<path d="M97.6552 257.589V250.441H76.21C77.9023 252.625 79.3244 255.022 80.462 257.589H97.6695H97.6552Z" fill="#065BAA"/>
<path d="M69.3701 243.734H97.6556V236.586H48.835V236.983C56.5285 236.983 63.639 239.493 69.3701 243.734Z" fill="#065BAA"/>
<path d="M97.6556 222.746H48.835V229.894H97.6556V222.746Z" fill="#065BAA"/>
<path d="M48.8206 312.941H0V320.089H48.8206V312.941Z" fill="#3080C3"/>
<path d="M28.2286 299.043H0V306.191H48.8206V305.85C41.0986 305.85 33.9597 303.326 28.2144 299.043" fill="#3080C3"/>
<path d="M0 285.145V292.292H21.3742C19.696 290.094 18.2739 287.711 17.1647 285.145H0Z" fill="#3080C3"/>
<path d="M14.3063 271.418H0V278.41H15.0031C14.5339 276.155 14.2921 273.815 14.2921 271.418" fill="#3080C3"/>
<path d="M62.8853 271.418C62.8853 271.418 62.8853 271.418 62.8853 271.432H83.3351L62.8711 271.418H62.8853Z" fill="#3080C3"/>
<mask id="mask0_580_309" style="mask-type:luminance" maskUnits="userSpaceOnUse" x="14" y="237" width="67" height="35">
<g opacity="0.5">
<path d="M14.3066 271.263H35.1119C34.0738 269.845 33.4623 268.115 33.4623 266.243V266.172C33.4623 261.45 37.3162 257.606 42.0518 257.606H48.8351H80.4626C79.3392 255.053 77.9029 252.657 76.2105 250.459H48.8351V243.75H69.3702C63.6249 239.51 56.5287 237 48.8351 237C29.8217 237 14.392 252.331 14.3066 271.278" fill="white"/>
</g>
</mask>
<g mask="url(#mask0_580_309)">
<path d="M53.0087 204.484L-2.63184 251.209L41.7486 303.768L97.3893 257.043L53.0087 204.484Z" fill="url(#paint0_linear_580_309)"/>
</g>
<mask id="mask1_580_309" style="mask-type:luminance" maskUnits="userSpaceOnUse" x="40" y="264" width="44" height="8">
<g opacity="0.5">
<path d="M71.0335 264.285V264.356H42.0511C41.0557 264.356 40.2451 265.164 40.2451 266.157V266.228C40.2451 267.221 41.0557 268.029 42.0511 268.029H56.073C58.8604 268.029 61.3206 269.362 62.8991 271.419H83.3631C83.3631 268.979 83.107 266.597 82.6235 264.285H71.0478H71.0335Z" fill="white"/>
</g>
</mask>
<g mask="url(#mask1_580_309)">
<path d="M65.472 243.109L36.7217 267.253L58.1288 292.605L86.879 268.461L65.472 243.109Z" fill="url(#paint1_linear_580_309)"/>
</g>
<path d="M62.8992 271.434C63.9942 272.866 64.6484 274.653 64.6484 276.596C64.6484 281.318 60.7945 285.162 56.0589 285.162H36.8464H17.1504C18.2739 287.714 19.6817 290.111 21.3598 292.309H48.8062V299.06H28.2001C33.9454 303.329 41.0843 305.867 48.8062 305.867C67.8766 305.867 83.3206 290.466 83.3348 271.448H62.8851L62.8992 271.434Z" fill="#065BAA"/>
<path d="M36.8605 278.395H56.073C57.0685 278.395 57.8791 277.587 57.8791 276.594C57.8791 275.601 57.0685 274.793 56.073 274.793H42.0511C39.2781 274.793 36.8036 273.46 35.2393 271.418C35.1967 271.361 35.154 271.318 35.1256 271.262H14.3203C14.3203 271.262 14.3203 271.361 14.3203 271.418C14.3203 273.814 14.562 276.14 15.0313 278.409H36.8747L36.8605 278.395Z" fill="#065BAA"/>
<path d="M71.0339 264.285H48.835V264.356H71.0339V264.285Z" fill="#3080C3"/>
<path d="M42.0512 264.357H48.8347V264.286H82.6237C82.1259 261.96 81.4007 259.72 80.4621 257.578H48.8347H42.0512C37.3156 257.578 33.4617 261.421 33.4617 266.144V266.215C33.4617 268.101 34.0733 269.831 35.1114 271.235C35.1541 271.292 35.1825 271.335 35.2252 271.391C36.7895 273.433 39.264 274.767 42.037 274.767H56.0589C57.0544 274.767 57.865 275.575 57.865 276.568C57.865 277.56 57.0544 278.369 56.0589 278.369H48.8204H36.8464H15.0029C15.4864 280.723 16.2118 282.978 17.1503 285.119H48.8204H56.0589C60.7945 285.119 64.6484 281.276 64.6484 276.553C64.6484 274.611 63.9942 272.824 62.8991 271.391C62.8991 271.391 62.8991 271.391 62.8991 271.377C61.3349 269.321 58.8604 268.002 56.0731 268.002H42.0512C41.0557 268.002 40.2451 267.193 40.2451 266.201V266.13C40.2451 265.137 41.0557 264.329 42.0512 264.329" fill="#1D3666"/>
<path d="M77.4331 292.293H21.374C23.3365 294.846 25.6261 297.129 28.2143 299.044H77.4189V292.293H77.4331Z" fill="#3080C3"/>
<path d="M19.2549 250.442H76.2099C74.2474 247.904 71.9578 245.649 69.3696 243.734H19.2549V250.442Z" fill="#065BAA"/>
</g>
<g opacity="0.5">
<path d="M187.538 260.885C187.26 260.747 186.982 260.619 186.704 260.48C186.982 260.608 187.26 260.747 187.538 260.885Z" fill="#1D3666"/>
<path d="M190.407 262.494C190.153 262.332 189.898 262.182 189.632 262.031C189.887 262.182 190.153 262.332 190.407 262.494Z" fill="#1D3666"/>
<path d="M186.046 260.179C185.757 260.051 185.468 259.924 185.166 259.797C185.455 259.924 185.757 260.04 186.046 260.179Z" fill="#1D3666"/>
<path d="M194.435 265.317C194.203 265.132 193.971 264.947 193.74 264.773C193.971 264.958 194.203 265.132 194.435 265.317Z" fill="#1D3666"/>
<path d="M193.138 264.322C192.895 264.148 192.664 263.974 192.421 263.801C192.664 263.974 192.906 264.148 193.138 264.322Z" fill="#1D3666"/>
<path d="M181.381 258.42C180.849 258.258 180.305 258.108 179.762 257.969C180.305 258.108 180.838 258.258 181.381 258.42Z" fill="#1D3666"/>
<path d="M195.696 266.372C195.475 266.175 195.245 265.978 195.013 265.793C195.245 265.978 195.464 266.175 195.696 266.372Z" fill="#1D3666"/>
<path d="M191.796 263.384C191.553 263.222 191.298 263.061 191.055 262.898C191.309 263.061 191.553 263.222 191.796 263.384Z" fill="#1D3666"/>
<path d="M201.678 272.922C206.365 279.379 209.118 287.305 209.118 295.891H189.934C201.644 295.764 208.552 282.445 201.678 272.922Z" fill="#065BAA"/>
<path d="M150.533 234.469C150.533 241.713 154.467 248.042 160.322 251.433C157.441 253.099 154.097 254.048 150.533 254.048C146.969 254.048 143.625 253.087 140.743 251.433C134.889 248.042 130.954 241.713 130.954 234.469C130.954 227.226 134.889 220.896 140.743 217.506C143.625 215.839 146.969 214.891 150.533 214.891C154.097 214.891 157.441 215.839 160.322 217.506C154.478 220.896 150.533 227.226 150.533 234.469Z" fill="#065BAA"/>
<path d="M129.45 262.809C129.207 262.959 128.965 263.121 128.722 263.271C128.965 263.109 129.207 262.959 129.45 262.809Z" fill="#1D3666"/>
<path d="M138.476 258.582C138.129 258.698 137.782 258.802 137.435 258.929C137.782 258.813 138.129 258.698 138.476 258.582Z" fill="#1D3666"/>
<path d="M135.259 259.773C134.969 259.889 134.68 260.016 134.402 260.144C134.691 260.016 134.981 259.901 135.259 259.773Z" fill="#1D3666"/>
<path d="M140.594 257.969C140.062 258.108 139.529 258.258 138.997 258.42C139.529 258.258 140.05 258.108 140.594 257.969Z" fill="#1D3666"/>
<path d="M132.273 261.176C132.007 261.315 131.752 261.453 131.486 261.592C131.741 261.453 132.007 261.315 132.273 261.176Z" fill="#1D3666"/>
<path d="M130.85 261.961C130.596 262.111 130.341 262.25 130.099 262.401C130.353 262.25 130.596 262.1 130.85 261.961Z" fill="#1D3666"/>
<path d="M133.743 260.445C133.465 260.573 133.198 260.7 132.921 260.839C133.187 260.7 133.465 260.573 133.743 260.445Z" fill="#1D3666"/>
<path d="M136.821 259.164C136.509 259.28 136.207 259.384 135.896 259.511C136.196 259.395 136.509 259.28 136.821 259.164Z" fill="#1D3666"/>
<path d="M150.394 261.972C147.374 260.225 144.087 258.859 140.616 257.969C143.74 257.17 147.015 256.73 150.405 256.73C153.796 256.73 157.059 257.159 160.195 257.969C156.724 258.859 153.438 260.225 150.405 261.972" fill="#1D3666"/>
<path d="M130.816 295.89H111.237C111.237 287.13 114.118 279.042 118.99 272.516C111.909 282.189 118.747 295.89 130.816 295.89Z" fill="#065BAA"/>
<path d="M160.311 251.433C166.166 248.042 170.099 241.713 170.099 234.469C170.099 227.226 166.166 220.896 160.311 217.506C163.204 215.839 166.536 214.891 170.111 214.891C173.687 214.891 177.019 215.839 179.901 217.506C185.756 220.896 189.69 227.226 189.69 234.469C189.69 241.713 185.756 248.042 179.901 251.433C177.019 253.099 173.676 254.048 170.111 254.048C166.547 254.048 163.204 253.099 160.322 251.433H160.311Z" fill="#065BAA"/>
<path d="M170.111 234.471C170.111 241.715 166.177 248.044 160.322 251.435C154.479 248.044 150.533 241.715 150.533 234.471C150.533 227.228 154.467 220.898 160.322 217.508C166.177 220.898 170.111 227.228 170.111 234.471Z" fill="#3080C3"/>
<path d="M160.252 257.969C160.252 257.969 160.229 257.969 160.218 257.969C160.218 257.969 160.195 257.969 160.184 257.969C163.308 257.17 166.594 256.73 169.973 256.73C173.351 256.73 176.626 257.159 179.761 257.969C176.302 258.859 173.027 260.213 170.007 261.961C166.987 260.213 163.712 258.859 160.252 257.969Z" fill="#1D3666"/>
<mask id="mask2_580_309" style="mask-type:luminance" maskUnits="userSpaceOnUse" x="191" y="263" width="2" height="1">
<g opacity="0.5">
<path d="M192.421 263.387H191.796V263.815H192.421V263.387Z" fill="white"/>
</g>
</mask>
<g mask="url(#mask2_580_309)">
<path d="M192.409 263.803C192.2 263.664 192.004 263.514 191.796 263.375C192.004 263.514 192.212 263.653 192.409 263.803Z" fill="#3080C3"/>
</g>
<mask id="mask3_580_309" style="mask-type:luminance" maskUnits="userSpaceOnUse" x="181" y="258" width="1" height="1">
<g opacity="0.5">
<path d="M181.914 258.422H181.382V258.595H181.914V258.422Z" fill="white"/>
</g>
</mask>
<g mask="url(#mask3_580_309)">
<path d="M181.914 258.595C181.74 258.538 181.555 258.48 181.382 258.422C181.567 258.48 181.74 258.538 181.914 258.595Z" fill="#3080C3"/>
</g>
<mask id="mask4_580_309" style="mask-type:luminance" maskUnits="userSpaceOnUse" x="188" y="261" width="2" height="2">
<g opacity="0.5">
<path d="M189.643 261.66H188.995V262.03H189.643V261.66Z" fill="white"/>
</g>
</mask>
<g mask="url(#mask4_580_309)">
<path d="M189.643 262.03C189.423 261.903 189.216 261.776 188.995 261.66C189.216 261.787 189.423 261.903 189.643 262.03Z" fill="#3080C3"/>
</g>
<mask id="mask5_580_309" style="mask-type:luminance" maskUnits="userSpaceOnUse" x="190" y="262" width="2" height="1">
<g opacity="0.5">
<path d="M191.043 262.496H190.407V262.901H191.043V262.496Z" fill="white"/>
</g>
</mask>
<g mask="url(#mask5_580_309)">
<path d="M191.043 262.89C190.836 262.751 190.628 262.623 190.407 262.496C190.615 262.623 190.836 262.762 191.043 262.89Z" fill="#3080C3"/>
</g>
<mask id="mask6_580_309" style="mask-type:luminance" maskUnits="userSpaceOnUse" x="193" y="264" width="1" height="1">
<g opacity="0.5">
<path d="M193.728 264.324H193.127V264.776H193.728V264.324Z" fill="white"/>
</g>
</mask>
<g mask="url(#mask6_580_309)">
<path d="M193.728 264.776C193.531 264.625 193.335 264.475 193.127 264.324C193.323 264.475 193.531 264.625 193.728 264.776Z" fill="#3080C3"/>
</g>
<mask id="mask7_580_309" style="mask-type:luminance" maskUnits="userSpaceOnUse" x="194" y="265" width="2" height="1">
<g opacity="0.5">
<path d="M195.013 265.316H194.434V265.791H195.013V265.316Z" fill="white"/>
</g>
</mask>
<g mask="url(#mask7_580_309)">
<path d="M195.013 265.791C194.816 265.629 194.631 265.478 194.434 265.316C194.631 265.467 194.828 265.629 195.013 265.791Z" fill="#3080C3"/>
</g>
<path d="M189.944 295.888H189.586H189.55C189.55 281.412 181.694 268.765 170.007 261.995C170.007 261.995 170.03 261.984 170.042 261.972C170.03 261.972 170.018 261.961 170.007 261.949C173.027 260.202 176.302 258.86 179.761 257.957C180.305 258.096 180.837 258.246 181.381 258.408C181.566 258.466 181.74 258.524 181.913 258.582C182.261 258.698 182.619 258.802 182.967 258.929C183.175 258.999 183.383 259.079 183.591 259.16C183.904 259.276 184.216 259.392 184.529 259.519C184.748 259.612 184.957 259.704 185.177 259.797C185.466 259.924 185.767 260.04 186.056 260.179C186.277 260.283 186.496 260.387 186.715 260.491C186.994 260.618 187.272 260.757 187.549 260.896C187.768 261.012 187.989 261.128 188.208 261.243C188.474 261.382 188.741 261.521 189.007 261.671C189.227 261.787 189.435 261.914 189.655 262.042C189.909 262.192 190.175 262.343 190.43 262.505C190.639 262.632 190.858 262.771 191.066 262.898C191.309 263.06 191.564 263.222 191.807 263.384C192.015 263.523 192.224 263.662 192.432 263.812C192.675 263.986 192.918 264.159 193.149 264.333C193.346 264.483 193.555 264.634 193.751 264.784C193.982 264.969 194.214 265.143 194.446 265.328C194.642 265.478 194.839 265.64 195.024 265.802C195.256 265.999 195.475 266.184 195.707 266.381C195.892 266.543 196.077 266.705 196.262 266.867C196.482 267.064 196.702 267.272 196.921 267.48C197.095 267.654 197.281 267.816 197.453 267.989C197.674 268.209 197.882 268.417 198.091 268.637C198.252 268.811 198.425 268.984 198.588 269.158C198.797 269.389 199.004 269.621 199.212 269.852C199.363 270.026 199.525 270.199 199.675 270.373C199.884 270.616 200.092 270.871 200.288 271.114C200.428 271.287 200.578 271.461 200.717 271.634C200.937 271.912 201.145 272.19 201.353 272.467C201.469 272.618 201.585 272.768 201.7 272.93C208.585 282.453 201.677 295.772 189.956 295.888" fill="#1D3666"/>
<path d="M189.944 295.888H189.586H189.55C189.55 281.412 181.694 268.765 170.007 261.995C170.007 261.995 170.03 261.984 170.042 261.972C170.03 261.972 170.018 261.961 170.007 261.949C173.027 260.202 176.302 258.86 179.761 257.957C180.305 258.096 180.837 258.246 181.381 258.408C181.566 258.466 181.74 258.524 181.913 258.582C182.261 258.698 182.619 258.802 182.967 258.929C183.175 258.999 183.383 259.079 183.591 259.16C183.904 259.276 184.216 259.392 184.529 259.519C184.748 259.612 184.957 259.704 185.177 259.797C185.466 259.924 185.767 260.04 186.056 260.179C186.277 260.283 186.496 260.387 186.715 260.491C186.994 260.618 187.272 260.757 187.549 260.896C187.768 261.012 187.989 261.128 188.208 261.243C188.474 261.382 188.741 261.521 189.007 261.671C189.227 261.787 189.435 261.914 189.655 262.042C189.909 262.192 190.175 262.343 190.43 262.505C190.639 262.632 190.858 262.771 191.066 262.898C191.309 263.06 191.564 263.222 191.807 263.384C192.015 263.523 192.224 263.662 192.432 263.812C192.675 263.986 192.918 264.159 193.149 264.333C193.346 264.483 193.555 264.634 193.751 264.784C193.982 264.969 194.214 265.143 194.446 265.328C194.642 265.478 194.839 265.64 195.024 265.802C195.256 265.999 195.475 266.184 195.707 266.381C195.892 266.543 196.077 266.705 196.262 266.867C196.482 267.064 196.702 267.272 196.921 267.48C197.095 267.654 197.281 267.816 197.453 267.989C197.674 268.209 197.882 268.417 198.091 268.637C198.252 268.811 198.425 268.984 198.588 269.158C198.797 269.389 199.004 269.621 199.212 269.852C199.363 270.026 199.525 270.199 199.675 270.373C199.884 270.616 200.092 270.871 200.288 271.114C200.428 271.287 200.578 271.461 200.717 271.634C200.937 271.912 201.145 272.19 201.353 272.467C201.469 272.618 201.585 272.768 201.7 272.93C208.585 282.453 201.677 295.772 189.956 295.888" fill="#3080C3"/>
<path d="M160.183 257.969C160.183 257.969 160.207 257.969 160.219 257.969C156.759 258.871 153.484 260.225 150.452 261.972C154.132 264.09 157.418 266.798 160.207 269.957C160.195 269.968 160.183 269.98 160.172 269.991C157.372 266.821 154.074 264.102 150.383 261.972C153.414 260.225 156.7 258.86 160.172 257.969H160.183Z" fill="#1D3666"/>
<mask id="mask8_580_309" style="mask-type:luminance" maskUnits="userSpaceOnUse" x="150" y="257" width="11" height="13">
<g opacity="0.5">
<path d="M160.218 257.969H150.394V269.991H160.218V257.969Z" fill="white"/>
</g>
</mask>
<g mask="url(#mask8_580_309)">
<path d="M160.182 257.969C160.182 257.969 160.206 257.969 160.218 257.969C156.758 258.871 153.483 260.225 150.451 261.972C154.131 264.09 157.417 266.798 160.206 269.957C160.194 269.968 160.182 269.98 160.171 269.991C157.371 266.821 154.073 264.102 150.382 261.972C153.413 260.225 156.7 258.86 160.171 257.969H160.182Z" fill="#3080C3"/>
</g>
<path d="M160.252 269.992C163.041 266.821 166.339 264.114 170.007 261.996C181.694 268.765 189.55 281.413 189.55 295.888H170.042C170.042 285.96 166.339 276.9 160.252 269.992C160.241 270.003 160.229 270.015 160.218 270.027C160.218 270.015 160.195 270.003 160.184 269.992C160.195 269.98 160.206 269.969 160.218 269.957C160.229 269.969 160.241 269.98 160.252 269.992Z" fill="#1D3666"/>
<path d="M160.252 269.992C163.041 266.821 166.339 264.114 170.007 261.996C181.694 268.765 189.55 281.413 189.55 295.888H170.042C170.042 285.96 166.339 276.9 160.252 269.992C160.241 270.003 160.229 270.015 160.218 270.027C160.218 270.015 160.195 270.003 160.184 269.992C160.195 269.98 160.206 269.969 160.218 269.957C160.229 269.969 160.241 269.98 160.252 269.992Z" fill="#065BAA"/>
<mask id="mask9_580_309" style="mask-type:luminance" maskUnits="userSpaceOnUse" x="129" y="262" width="2" height="1">
<g opacity="0.5">
<path d="M130.086 262.402H129.45V262.807H130.086V262.402Z" fill="white"/>
</g>
</mask>
<g mask="url(#mask9_580_309)">
<path d="M130.086 262.402C129.879 262.53 129.659 262.668 129.45 262.807C129.659 262.668 129.867 262.541 130.086 262.402Z" fill="#3080C3"/>
</g>
<mask id="mask10_580_309" style="mask-type:luminance" maskUnits="userSpaceOnUse" x="135" y="259" width="1" height="1">
<g opacity="0.5">
<path d="M135.907 259.496H135.26V259.762H135.907V259.496Z" fill="white"/>
</g>
</mask>
<g mask="url(#mask10_580_309)">
<path d="M135.907 259.496C135.688 259.589 135.479 259.681 135.26 259.762C135.468 259.67 135.688 259.577 135.907 259.496Z" fill="#3080C3"/>
</g>
<mask id="mask11_580_309" style="mask-type:luminance" maskUnits="userSpaceOnUse" x="133" y="260" width="2" height="1">
<g opacity="0.5">
<path d="M134.391 260.133H133.742V260.445H134.391V260.133Z" fill="white"/>
</g>
</mask>
<g mask="url(#mask11_580_309)">
<path d="M134.403 260.145C134.182 260.249 133.963 260.353 133.754 260.457C133.974 260.353 134.182 260.249 134.403 260.145Z" fill="#3080C3"/>
</g>
<mask id="mask12_580_309" style="mask-type:luminance" maskUnits="userSpaceOnUse" x="132" y="260" width="1" height="2">
<g opacity="0.5">
<path d="M132.934 260.84H132.273V261.175H132.934V260.84Z" fill="white"/>
</g>
</mask>
<g mask="url(#mask12_580_309)">
<path d="M132.933 260.84C132.713 260.956 132.493 261.071 132.285 261.175C132.506 261.06 132.713 260.944 132.933 260.84Z" fill="#3080C3"/>
</g>
<path d="M118.99 272.514C119.106 272.352 119.233 272.19 119.349 272.039C119.522 271.819 119.696 271.6 119.869 271.38C120.032 271.183 120.194 270.986 120.356 270.79C120.541 270.57 120.715 270.361 120.9 270.153C121.062 269.956 121.235 269.771 121.409 269.575C121.594 269.366 121.791 269.158 121.987 268.961C122.161 268.776 122.334 268.591 122.519 268.406C122.716 268.209 122.913 268.013 123.121 267.816C123.306 267.642 123.491 267.457 123.676 267.284C123.885 267.087 124.093 266.902 124.301 266.717C124.486 266.543 124.684 266.381 124.869 266.207C125.088 266.022 125.296 265.837 125.516 265.664C125.713 265.502 125.909 265.34 126.107 265.189C126.326 265.016 126.558 264.842 126.789 264.669C126.985 264.518 127.194 264.368 127.391 264.217C127.623 264.055 127.854 263.882 128.097 263.72C128.305 263.581 128.514 263.43 128.722 263.292C128.965 263.129 129.207 262.979 129.45 262.829C129.659 262.69 129.867 262.562 130.087 262.424C130.341 262.273 130.585 262.123 130.839 261.984C131.059 261.857 131.268 261.729 131.487 261.614C131.742 261.475 132.008 261.336 132.274 261.197C132.494 261.081 132.702 260.966 132.922 260.862C133.188 260.723 133.465 260.595 133.744 260.468C133.963 260.364 134.184 260.26 134.403 260.156C134.692 260.028 134.97 259.913 135.26 259.785C135.468 259.693 135.688 259.6 135.907 259.519C136.208 259.404 136.521 259.288 136.833 259.172C137.042 259.103 137.238 259.022 137.446 258.941C137.793 258.813 138.14 258.709 138.488 258.594C138.661 258.536 138.835 258.478 139.008 258.42C139.541 258.258 140.062 258.108 140.605 257.969H140.617C144.088 258.86 147.374 260.225 150.394 261.972C138.696 268.742 130.816 281.4 130.816 295.888C118.759 295.888 111.909 282.187 118.99 272.514Z" fill="#1D3666"/>
<path d="M118.99 272.514C119.106 272.352 119.233 272.19 119.349 272.039C119.522 271.819 119.696 271.6 119.869 271.38C120.032 271.183 120.194 270.986 120.356 270.79C120.541 270.57 120.715 270.361 120.9 270.153C121.062 269.956 121.235 269.771 121.409 269.575C121.594 269.366 121.791 269.158 121.987 268.961C122.161 268.776 122.334 268.591 122.519 268.406C122.716 268.209 122.913 268.013 123.121 267.816C123.306 267.642 123.491 267.457 123.676 267.284C123.885 267.087 124.093 266.902 124.301 266.717C124.486 266.543 124.684 266.381 124.869 266.207C125.088 266.022 125.296 265.837 125.516 265.664C125.713 265.502 125.909 265.34 126.107 265.189C126.326 265.016 126.558 264.842 126.789 264.669C126.985 264.518 127.194 264.368 127.391 264.217C127.623 264.055 127.854 263.882 128.097 263.72C128.305 263.581 128.514 263.43 128.722 263.292C128.965 263.129 129.207 262.979 129.45 262.829C129.659 262.69 129.867 262.562 130.087 262.424C130.341 262.273 130.585 262.123 130.839 261.984C131.059 261.857 131.268 261.729 131.487 261.614C131.742 261.475 132.008 261.336 132.274 261.197C132.494 261.081 132.702 260.966 132.922 260.862C133.188 260.723 133.465 260.595 133.744 260.468C133.963 260.364 134.184 260.26 134.403 260.156C134.692 260.028 134.97 259.913 135.26 259.785C135.468 259.693 135.688 259.6 135.907 259.519C136.208 259.404 136.521 259.288 136.833 259.172C137.042 259.103 137.238 259.022 137.446 258.941C137.793 258.813 138.14 258.709 138.488 258.594C138.661 258.536 138.835 258.478 139.008 258.42C139.541 258.258 140.062 258.108 140.605 257.969H140.617C144.088 258.86 147.374 260.225 150.394 261.972C138.696 268.742 130.816 281.4 130.816 295.888C118.759 295.888 111.909 282.187 118.99 272.514Z" fill="#3080C3"/>
<path d="M150.394 261.973C154.086 264.102 157.383 266.821 160.184 269.991C154.097 276.888 150.394 285.96 150.394 295.888H130.816C130.816 281.401 138.684 268.742 150.394 261.973Z" fill="#1D3666"/>
<path d="M150.394 261.973C154.086 264.102 157.383 266.821 160.184 269.991C154.097 276.888 150.394 285.96 150.394 295.888H130.816C130.816 281.401 138.684 268.742 150.394 261.973Z" fill="#065BAA"/>
<path d="M150.463 295.889H150.394C150.394 285.972 154.085 276.9 160.182 269.992C160.195 270.004 160.206 270.015 160.218 270.027C154.142 276.923 150.463 285.972 150.463 295.877" fill="#1D3666"/>
<path d="M150.463 295.889H150.394C150.394 285.972 154.085 276.9 160.182 269.992C160.195 270.004 160.206 270.015 160.218 270.027C154.142 276.923 150.463 285.972 150.463 295.877" fill="#1D3666"/>
<mask id="mask13_580_309" style="mask-type:luminance" maskUnits="userSpaceOnUse" x="150" y="269" width="11" height="27">
<g opacity="0.5">
<path d="M160.206 269.992H150.394V295.889H160.206V269.992Z" fill="white"/>
</g>
</mask>
<g mask="url(#mask13_580_309)">
<path d="M150.463 295.889H150.394C150.394 285.972 154.085 276.9 160.182 269.992C160.195 270.004 160.206 270.015 160.218 270.027C154.142 276.923 150.463 285.972 150.463 295.877" fill="#3080C3"/>
<path d="M150.463 295.889H150.394C150.394 285.972 154.085 276.9 160.182 269.992C160.195 270.004 160.206 270.015 160.218 270.027C154.142 276.923 150.463 285.972 150.463 295.877" fill="#3080C3"/>
</g>
<path d="M189.575 295.891V300.565C189.575 311.361 198.322 320.109 209.118 320.109H194.249C180.873 320.109 170.031 309.267 170.031 295.891H189.575Z" fill="#065BAA"/>
<path d="M130.816 300.577V295.902H150.36C150.36 309.279 139.518 320.121 126.141 320.121H111.271C122.068 320.121 130.816 311.373 130.816 300.577Z" fill="#065BAA"/>
<mask id="mask14_580_309" style="mask-type:luminance" maskUnits="userSpaceOnUse" x="150" y="295" width="21" height="1">
<g opacity="0.5">
<path d="M150.464 295.902H170.03V295.891L150.464 295.902Z" fill="white"/>
</g>
</mask>
<g mask="url(#mask14_580_309)">
<path d="M150.652 293.949L150.458 295.895L169.835 297.833L170.03 295.887L150.652 293.949Z" fill="url(#paint2_linear_580_309)"/>
</g>
<mask id="mask15_580_309" style="mask-type:luminance" maskUnits="userSpaceOnUse" x="150" y="295" width="21" height="26">
<g opacity="0.5">
<path d="M150.464 295.902C150.464 305.183 154.156 313.664 160.253 320.121C166.34 313.664 170.043 305.194 170.043 295.902H170.03H150.464Z" fill="white"/>
</g>
</mask>
<g mask="url(#mask15_580_309)">
<path d="M150.459 295.609L150.087 320.115L170.022 320.417L170.395 295.912L150.459 295.609Z" fill="url(#paint3_linear_580_309)"/>
</g>
<path d="M160.241 269.992C166.328 276.889 170.03 285.961 170.03 295.889H169.962C169.962 285.984 166.27 276.935 160.207 270.039C160.207 270.027 160.23 270.015 160.241 270.004" fill="#1D3666"/>
<path d="M160.241 269.992C166.328 276.889 170.03 285.961 170.03 295.889H169.962C169.962 285.984 166.27 276.935 160.207 270.039C160.207 270.027 160.23 270.015 160.241 270.004" fill="#1D3666"/>
<mask id="mask16_580_309" style="mask-type:luminance" maskUnits="userSpaceOnUse" x="160" y="269" width="11" height="27">
<g opacity="0.5">
<path d="M170.042 269.992H160.218V295.889H170.042V269.992Z" fill="white"/>
</g>
</mask>
<g mask="url(#mask16_580_309)">
<path d="M160.241 269.992C166.327 276.889 170.03 285.961 170.03 295.889H169.961C169.961 285.984 166.27 276.935 160.206 270.039C160.206 270.027 160.229 270.015 160.241 270.004" fill="#3080C3"/>
</g>
<mask id="mask17_580_309" style="mask-type:luminance" maskUnits="userSpaceOnUse" x="160" y="269" width="11" height="27">
<g opacity="0.5">
<path d="M160.218 270.027C166.293 276.923 169.973 285.972 169.973 295.877H170.03C170.03 285.949 166.328 276.888 160.241 269.98C160.241 269.992 160.218 270.004 160.207 270.015" fill="white"/>
</g>
</mask>
<g mask="url(#mask17_580_309)">
<path d="M166.56 265.297L147.834 279.149L163.688 300.582L182.414 286.73L166.56 265.297Z" fill="url(#paint4_linear_580_309)"/>
</g>
<path d="M169.973 295.889H150.464C150.464 285.984 154.143 276.936 160.218 270.039C166.293 276.936 169.973 285.984 169.973 295.889Z" fill="#1D3666"/>
<path d="M169.973 295.889H150.464C150.464 285.984 154.143 276.936 160.218 270.039C166.293 276.936 169.973 285.984 169.973 295.889Z" fill="#1D3666"/>
<mask id="mask18_580_309" style="mask-type:luminance" maskUnits="userSpaceOnUse" x="150" y="270" width="20" height="26">
<g opacity="0.5">
<path d="M169.973 270.027H150.464V295.877H169.973V270.027Z" fill="white"/>
</g>
</mask>
<g mask="url(#mask18_580_309)">
<path d="M169.973 295.889H150.464C150.464 285.984 154.144 276.936 160.218 270.039C166.293 276.936 169.973 285.984 169.973 295.889Z" fill="#3080C3"/>
<path d="M169.973 295.889H150.464C150.464 285.984 154.144 276.936 160.218 270.039C166.293 276.936 169.973 285.984 169.973 295.889Z" fill="#3080C3"/>
</g>
<mask id="mask19_580_309" style="mask-type:luminance" maskUnits="userSpaceOnUse" x="150" y="270" width="20" height="26">
<g opacity="0.5">
<path d="M150.464 295.889H169.973C169.973 285.984 166.281 276.936 160.218 270.039C154.143 276.936 150.464 285.984 150.464 295.889Z" fill="white"/>
</g>
</mask>
<g mask="url(#mask19_580_309)">
<path d="M150.462 269.727L150.064 295.874L169.966 296.177L170.362 270.029L150.462 269.727Z" fill="url(#paint5_linear_580_309)"/>
</g>
<mask id="mask20_580_309" style="mask-type:luminance" maskUnits="userSpaceOnUse" x="160" y="257" width="11" height="5">
<g opacity="0.5">
<path d="M170.007 257.969H160.218V261.972H170.007V257.969Z" fill="white"/>
</g>
</mask>
<g mask="url(#mask20_580_309)">
<path d="M160.218 257.969C160.218 257.969 160.241 257.969 160.252 257.969C163.712 258.86 166.987 260.214 170.007 261.961C170.007 261.961 169.984 261.972 169.972 261.984C166.952 260.237 163.678 258.883 160.218 257.98" fill="#3080C3"/>
</g>
<mask id="mask21_580_309" style="mask-type:luminance" maskUnits="userSpaceOnUse" x="160" y="257" width="11" height="5">
<g opacity="0.5">
<path d="M160.252 257.969C160.252 257.969 160.229 257.969 160.218 257.969C163.678 258.871 166.952 260.225 169.972 261.972C169.984 261.972 169.995 261.961 170.007 261.949C166.987 260.202 163.712 258.86 160.252 257.957V257.969Z" fill="white"/>
</g>
</mask>
<g mask="url(#mask21_580_309)">
<path d="M170.007 257.969H160.218V261.972H170.007V257.969Z" fill="url(#paint6_linear_580_309)"/>
</g>
<path d="M170.007 261.949C170.007 261.949 170.03 261.961 170.041 261.972C170.03 261.972 170.018 261.983 170.007 261.995C169.996 261.995 169.984 261.983 169.973 261.972C169.984 261.972 169.996 261.961 170.007 261.949Z" fill="#1D3666"/>
<mask id="mask22_580_309" style="mask-type:luminance" maskUnits="userSpaceOnUse" x="169" y="261" width="2" height="1">
<g opacity="0.5">
<path d="M170.041 261.949H169.973V261.983H170.041V261.949Z" fill="white"/>
</g>
</mask>
<g mask="url(#mask22_580_309)">
<path d="M170.007 261.949C170.007 261.949 170.03 261.961 170.041 261.972C170.03 261.972 170.018 261.983 170.007 261.995C169.996 261.995 169.984 261.983 169.973 261.972C169.984 261.972 169.996 261.961 170.007 261.949Z" fill="#3080C3"/>
</g>
<mask id="mask23_580_309" style="mask-type:luminance" maskUnits="userSpaceOnUse" x="169" y="261" width="2" height="1">
<g opacity="0.5">
<path d="M169.973 261.972C169.973 261.972 169.996 261.983 170.007 261.995C170.007 261.995 170.03 261.983 170.041 261.972C170.03 261.972 170.018 261.961 170.007 261.949C169.996 261.949 169.984 261.961 169.973 261.972Z" fill="white"/>
</g>
</mask>
<g mask="url(#mask23_580_309)">
<path d="M170.041 261.949H169.973V261.983H170.041V261.949Z" fill="url(#paint7_linear_580_309)"/>
</g>
<path d="M160.218 269.957C157.429 266.798 154.132 264.102 150.464 261.972C153.484 260.225 156.759 258.871 160.218 257.98C163.678 258.871 166.953 260.225 169.973 261.972C166.293 264.102 163.007 266.798 160.218 269.957Z" fill="#1D3666"/>
<mask id="mask24_580_309" style="mask-type:luminance" maskUnits="userSpaceOnUse" x="150" y="257" width="20" height="13">
<g opacity="0.5">
<path d="M169.961 257.969H150.452V269.957H169.961V257.969Z" fill="white"/>
</g>
</mask>
<g mask="url(#mask24_580_309)">
<path d="M160.218 269.957C157.429 266.798 154.132 264.102 150.464 261.972C153.484 260.225 156.759 258.871 160.218 257.98C163.678 258.871 166.953 260.225 169.973 261.972C166.293 264.102 163.007 266.798 160.218 269.957Z" fill="#3080C3"/>
</g>
<mask id="mask25_580_309" style="mask-type:luminance" maskUnits="userSpaceOnUse" x="150" y="257" width="20" height="13">
<g opacity="0.5">
<path d="M150.452 261.972C154.131 264.09 157.417 266.798 160.206 269.957C162.995 266.798 166.292 264.102 169.961 261.972C166.941 260.225 163.666 258.871 160.206 257.969C156.747 258.871 153.472 260.225 150.44 261.972" fill="white"/>
</g>
</mask>
<g mask="url(#mask25_580_309)">
<path d="M169.973 257.969H150.452V269.957H169.973V257.969Z" fill="url(#paint8_linear_580_309)"/>
</g>
<path d="M160.252 269.991C160.252 269.991 160.229 269.968 160.218 269.957C163.006 266.798 166.305 264.102 169.972 261.973C169.984 261.973 169.995 261.984 170.007 261.996C166.328 264.125 163.041 266.833 160.252 269.991Z" fill="#1D3666"/>
<path d="M160.252 269.991C160.252 269.991 160.229 269.968 160.218 269.957C163.006 266.798 166.305 264.102 169.972 261.973C169.984 261.973 169.995 261.984 170.007 261.996C166.328 264.125 163.041 266.833 160.252 269.991Z" fill="#1D3666"/>
<mask id="mask26_580_309" style="mask-type:luminance" maskUnits="userSpaceOnUse" x="160" y="261" width="11" height="9">
<g opacity="0.5">
<path d="M170.007 261.973H160.218V269.991H170.007V261.973Z" fill="white"/>
</g>
</mask>
<g mask="url(#mask26_580_309)">
<path d="M160.252 269.991C160.252 269.991 160.229 269.968 160.218 269.957C163.006 266.798 166.305 264.102 169.972 261.973C169.984 261.973 169.995 261.984 170.007 261.996C166.328 264.125 163.041 266.833 160.252 269.991Z" fill="#3080C3"/>
</g>
<mask id="mask27_580_309" style="mask-type:luminance" maskUnits="userSpaceOnUse" x="160" y="261" width="11" height="9">
<g opacity="0.5">
<path d="M160.218 269.957C160.218 269.957 160.241 269.98 160.252 269.991C163.041 266.821 166.339 264.125 170.007 261.996C169.995 261.996 169.984 261.984 169.972 261.973C166.292 264.09 163.006 266.798 160.218 269.957Z" fill="white"/>
</g>
</mask>
<g mask="url(#mask27_580_309)">
<path d="M170.007 261.973H160.218V269.991H170.007V261.973Z" fill="url(#paint9_linear_580_309)"/>
</g>
<path d="M130.816 295.891H111.271V320.109C122.068 320.109 130.816 311.361 130.816 300.565V295.891Z" fill="#3080C3"/>
<path d="M209.129 320.121V295.902H189.586V300.577C189.586 311.373 198.333 320.121 209.129 320.121Z" fill="#3080C3"/>
</g>
</g>
<g clip-path="url(#clip2_580_309)">
<g opacity="0.5">
<path d="M1323.94 22.0781C1330.2 22.0781 1335.28 27.1801 1335.28 33.473C1335.28 39.7658 1330.2 44.8678 1323.94 44.8678C1317.67 44.8678 1312.59 39.7658 1312.59 33.473C1312.59 27.1801 1317.67 22.0781 1323.94 22.0781Z" fill="#065BAA"/>
<path d="M1226.34 21.9805C1232.61 21.9805 1237.69 27.0825 1237.69 33.3753C1237.69 39.6682 1232.61 44.7702 1226.34 44.7702C1220.08 44.7702 1215 39.6791 1215 33.3753C1215 27.0715 1220.08 21.9805 1226.34 21.9805Z" fill="#065BAA"/>
<path d="M1230.65 66.7628H1252.77C1252.77 66.7628 1252.62 64.2173 1253.66 60.6119C1256.31 51.3256 1264.81 44.5303 1274.9 44.5085C1263.68 44.4975 1253.46 40.2913 1245.66 33.3867C1236.46 41.5477 1230.64 53.467 1230.64 66.7736" fill="#3080C3"/>
<path d="M1275.86 22.2325C1275.56 22.2325 1275.25 22.2109 1274.95 22.2109V22.2541C1275.25 22.2541 1275.56 22.2541 1275.86 22.2325Z" fill="#1D3666"/>
<path d="M1304.26 33.3633C1296.66 40.104 1286.74 44.2665 1275.86 44.485C1285.61 44.8783 1293.73 51.5972 1296.28 60.665C1297.28 64.2047 1297.19 66.7175 1297.19 66.7175H1319.26C1319.26 53.4326 1313.45 41.5134 1304.27 33.3633" fill="#3080C3"/>
<path d="M1253.65 6.15079C1252.62 2.54553 1252.77 0 1252.77 0H1230.65C1230.65 13.2958 1236.47 25.2259 1245.67 33.3869C1253.47 26.4823 1263.69 22.2761 1274.91 22.2653C1264.82 22.2434 1256.32 15.448 1253.67 6.16172" fill="#3080C3"/>
<mask id="mask28_580_309" style="mask-type:luminance" maskUnits="userSpaceOnUse" x="1245" y="22" width="30" height="23">
<g opacity="0.5">
<path d="M1245.66 33.3748C1253.46 40.2903 1263.68 44.4856 1274.9 44.4965H1274.95V22.2422C1274.95 22.2422 1274.92 22.2422 1274.9 22.2422C1263.68 22.2531 1253.46 26.4593 1245.66 33.3638" fill="white"/>
</g>
</mask>
<g mask="url(#mask28_580_309)">
<path d="M1271.35 12.5977L1238.39 24.9903L1249.26 54.1613L1282.22 41.7686L1271.35 12.5977Z" fill="url(#paint10_linear_580_309)"/>
</g>
<path d="M1319.25 0H1297.55C1297.55 0 1297.26 2.50183 1296.27 6.05247C1293.72 15.1203 1285.6 21.8391 1275.85 22.2324C1286.74 22.4509 1296.65 26.6134 1304.25 33.3542C1313.45 25.2041 1319.25 13.2848 1319.25 0Z" fill="#3080C3"/>
<path d="M1274.95 44.508C1275.25 44.508 1275.56 44.4972 1275.86 44.4864C1275.56 44.4756 1275.25 44.4648 1274.95 44.4648V44.508Z" fill="#1D3666"/>
<path d="M1275.86 22.2344C1275.56 22.2453 1275.25 22.2563 1274.95 22.2563V44.4668C1275.25 44.4668 1275.56 44.4668 1275.86 44.4887C1286.75 44.2702 1296.66 40.1077 1304.26 33.367C1296.66 26.6263 1286.74 22.4638 1275.86 22.2453" fill="#1D3766"/>
<path d="M1274.95 50.2344C1265.86 50.2344 1258.49 57.6306 1258.49 66.764H1291.41C1291.41 57.6306 1284.04 50.2344 1274.95 50.2344Z" fill="#065BAA"/>
<path d="M1274.95 16.7053C1284.04 16.7053 1291.41 9.30912 1291.41 0.175781H1258.49C1258.49 9.30912 1265.86 16.7053 1274.95 16.7053Z" fill="#065BAA"/>
<path d="M1274.95 82.7131C1284.04 82.7131 1291.41 75.3169 1291.41 66.1836H1258.49C1258.49 75.3169 1265.86 82.7131 1274.95 82.7131Z" fill="#065BAA"/>
</g>
<mask id="mask29_580_309" style="mask-type:luminance" maskUnits="userSpaceOnUse" x="1346" y="61" width="36" height="20">
<path d="M1346.37 61.0117C1347.2 71.9334 1356.35 80.5645 1367.51 80.5645C1372.96 80.5645 1377.93 78.5069 1381.69 75.127C1379.31 72.4175 1377.53 69.1681 1376.57 65.5926C1374.59 68.479 1371.26 70.3692 1367.51 70.3692C1361.99 70.3692 1357.42 66.291 1356.64 61.0117H1346.37Z" fill="white"/>
</mask>
<g mask="url(#mask29_580_309)">
<path d="M1349.44 51.0742L1340.84 78.8665L1378.62 90.5059L1387.22 62.7136L1349.44 51.0742Z" fill="url(#paint11_linear_580_309)"/>
</g>
<mask id="mask30_580_309" style="mask-type:luminance" maskUnits="userSpaceOnUse" x="1346" y="3" width="75" height="78">
<path d="M1351.39 3.23828C1348.57 3.23828 1346.28 5.51945 1346.28 8.34064V40.5283H1356.63C1357.41 35.2491 1361.98 31.1895 1367.46 31.1802C1373.53 31.1616 1378.48 36.2919 1378.48 42.344V59.0569C1378.48 70.7608 1387.87 80.4906 1399.59 80.5372C1405.48 80.5651 1410.82 78.1908 1414.68 74.3268C1418.52 70.5 1420.9 65.2115 1420.9 59.3735V41.5618C1420.9 40.4538 1420.8 39.3552 1420.58 38.2658V38.2471C1418.69 28.4987 1410.09 21.1059 1399.76 21.1059C1394.31 21.1059 1389.33 23.1635 1385.57 26.5434C1387.95 29.2435 1389.74 32.493 1390.7 36.0777C1392.68 33.1914 1396 31.3013 1399.76 31.3013C1404.36 31.3013 1408.32 34.1318 1409.98 38.1354C1410.46 39.3086 1410.68 40.5749 1410.68 41.8505V59.1873C1410.68 65.2487 1405.83 70.3139 1399.76 70.351C1398.85 70.351 1397.98 70.258 1397.14 70.0531C1396.31 69.8576 1395.53 69.569 1394.8 69.2059C1393.41 68.5169 1392.19 67.5485 1391.21 66.366C1389.64 64.4666 1388.7 62.0365 1388.7 59.3922V42.1577C1388.7 38.4055 1387.72 34.8767 1385.99 31.804C1385.97 31.7668 1385.95 31.7202 1385.92 31.683C1382.26 25.305 1375.38 20.9942 1367.5 20.9942C1363.48 20.9942 1359.72 22.1207 1356.52 24.0574V13.4523H1380.86V3.25691H1351.4L1351.39 3.23828Z" fill="white"/>
</mask>
<g mask="url(#mask30_580_309)">
<path d="M1352.78 -17.7422L1324.44 73.8373L1414.41 101.558L1442.75 9.97875L1352.78 -17.7422Z" fill="url(#paint12_linear_580_309)"/>
</g>
<path d="M1399.76 62.856L1396.37 60.91V59.9883L1400.64 62.4464H1402.87V63.2657H1400.64L1396.37 65.7238V64.802L1399.76 62.856Z" fill="#CEBA8C"/>
<path d="M1396.37 54.3555H1397.17V58.1822H1399.17V54.6534H1399.95V58.1822H1402.08V54.3555H1402.87V59.0016H1396.37V54.3555Z" fill="#CEBA8C"/>
<path d="M1396.37 51.292V50.3051L1402.87 47.875V48.7595L1401.11 49.4019V52.1766L1402.87 52.8191V53.7036L1396.37 51.3014V51.292ZM1400.33 49.6813L1397.34 50.7799L1400.33 51.8879V49.6905V49.6813Z" fill="#CEBA8C"/>
<path d="M1396.37 46.853V44.1156C1396.37 43.3614 1396.54 42.7934 1396.87 42.4117C1397.21 42.0299 1397.68 41.8438 1398.27 41.8438C1398.64 41.8438 1398.97 41.9555 1399.24 42.1882C1399.52 42.4117 1399.72 42.7376 1399.86 43.1473C1399.96 42.7655 1400.09 42.4768 1400.27 42.3C1400.45 42.1231 1400.69 42.0299 1401 42.0299H1402.12C1402.52 42.0299 1402.77 42.0114 1402.88 41.9741V42.7842C1402.74 42.8307 1402.49 42.8493 1402.12 42.8493H1400.95C1400.7 42.8493 1400.5 42.9518 1400.37 43.1473C1400.24 43.3428 1400.18 43.6686 1400.18 44.1156V46.0337H1402.88V46.853H1396.38H1396.37ZM1398.27 42.691C1397.54 42.691 1397.16 43.1659 1397.16 44.1156V46.0337H1399.38V44.1156C1399.38 43.1659 1399 42.691 1398.27 42.691H1398.27Z" fill="#CEBA8C"/>
<path d="M1399.9 36.3108C1400.21 35.9943 1400.6 35.8359 1401.06 35.8359C1401.66 35.8359 1402.14 36.0501 1402.46 36.4877C1402.8 36.9253 1402.97 37.5491 1402.97 38.3686C1402.97 39.1879 1402.75 39.7652 1402.33 40.2214C1401.91 40.6776 1401.33 40.9103 1400.59 40.9103V40.0631C1401.08 40.0631 1401.48 39.9048 1401.76 39.5975C1402.04 39.2903 1402.17 38.862 1402.17 38.3127C1402.17 37.8005 1402.07 37.4095 1401.88 37.1208C1401.68 36.8322 1401.4 36.6925 1401.04 36.6925C1400.78 36.6925 1400.57 36.795 1400.39 36.9999C1400.22 37.2046 1400.11 37.4933 1400.07 37.8657L1399.92 39.011C1399.84 39.5696 1399.67 40.0072 1399.37 40.3238C1399.07 40.6404 1398.69 40.7894 1398.21 40.7894C1397.59 40.7894 1397.12 40.5845 1396.78 40.1841C1396.45 39.7838 1396.27 39.2158 1396.27 38.4895C1396.27 37.6888 1396.47 37.0557 1396.89 36.5995C1397.3 36.1432 1397.88 35.9105 1398.62 35.9105V36.7577C1398.13 36.7577 1397.74 36.9067 1397.47 37.1954C1397.2 37.484 1397.06 37.875 1397.06 38.3778C1397.06 38.8806 1397.16 39.2717 1397.36 39.5416C1397.56 39.821 1397.84 39.9607 1398.19 39.9607C1398.7 39.9607 1399.01 39.5975 1399.12 38.862L1399.31 37.6329C1399.39 37.0743 1399.59 36.646 1399.91 36.3201L1399.9 36.3108Z" fill="#CEBA8C"/>
</g>
</g>
<defs>
<linearGradient id="paint0_linear_580_309" x1="-20.1257" y1="175.787" x2="57.0366" y2="267.673" gradientUnits="userSpaceOnUse">
<stop stop-color="#79653F"/>
<stop offset="0.41" stop-color="#79653F"/>
<stop offset="0.51" stop-color="#87734C"/>
<stop offset="0.71" stop-color="#AD996E"/>
<stop offset="0.98" stop-color="#EAD5A6"/>
<stop offset="1" stop-color="#F0DBAB"/>
</linearGradient>
<linearGradient id="paint1_linear_580_309" x1="-18.263" y1="174.182" x2="58.8993" y2="266.068" gradientUnits="userSpaceOnUse">
<stop stop-color="#79653F"/>
<stop offset="0.41" stop-color="#79653F"/>
<stop offset="0.51" stop-color="#87734C"/>
<stop offset="0.71" stop-color="#AD996E"/>
<stop offset="0.98" stop-color="#EAD5A6"/>
<stop offset="1" stop-color="#F0DBAB"/>
</linearGradient>
<linearGradient id="paint2_linear_580_309" x1="166.516" y1="275.623" x2="162.722" y2="313.569" gradientUnits="userSpaceOnUse">
<stop stop-color="#7D6438"/>
<stop offset="0.21" stop-color="#7D6438"/>
<stop offset="0.35" stop-color="#8B7244"/>
<stop offset="0.6" stop-color="#B19766"/>
<stop offset="0.95" stop-color="#EED29D"/>
<stop offset="1" stop-color="#F7DBA5"/>
</linearGradient>
<linearGradient id="paint3_linear_580_309" x1="161.362" y1="233.746" x2="160.013" y2="322.643" gradientUnits="userSpaceOnUse">
<stop stop-color="#7D6438"/>
<stop offset="0.21" stop-color="#7D6438"/>
<stop offset="0.35" stop-color="#8B7244"/>
<stop offset="0.6" stop-color="#B19766"/>
<stop offset="0.95" stop-color="#EED29D"/>
<stop offset="1" stop-color="#F7DBA5"/>
</linearGradient>
<linearGradient id="paint4_linear_580_309" x1="168.8" y1="277.163" x2="147.38" y2="293.007" gradientUnits="userSpaceOnUse">
<stop stop-color="#7D6438"/>
<stop offset="0.21" stop-color="#7D6438"/>
<stop offset="0.35" stop-color="#8B7244"/>
<stop offset="0.6" stop-color="#B19766"/>
<stop offset="0.95" stop-color="#EED29D"/>
<stop offset="1" stop-color="#F7DBA5"/>
</linearGradient>
<linearGradient id="paint5_linear_580_309" x1="160.534" y1="233.611" x2="159.185" y2="322.508" gradientUnits="userSpaceOnUse">
<stop stop-color="#7D6438"/>
<stop offset="0.21" stop-color="#7D6438"/>
<stop offset="0.35" stop-color="#8B7244"/>
<stop offset="0.6" stop-color="#B19766"/>
<stop offset="0.95" stop-color="#EED29D"/>
<stop offset="1" stop-color="#F7DBA5"/>
</linearGradient>
<linearGradient id="paint6_linear_580_309" x1="165.29" y1="252.973" x2="165.29" y2="268.889" gradientUnits="userSpaceOnUse">
<stop stop-color="#7D6438"/>
<stop offset="0.24" stop-color="#7D6438"/>
<stop offset="0.34" stop-color="#8B7244"/>
<stop offset="0.55" stop-color="#B19766"/>
<stop offset="0.84" stop-color="#EED29D"/>
<stop offset="0.88" stop-color="#F7DBA5"/>
<stop offset="1" stop-color="#F7DBA5"/>
</linearGradient>
<linearGradient id="paint7_linear_580_309" x1="170.143" y1="253.102" x2="170.143" y2="268.789" gradientUnits="userSpaceOnUse">
<stop stop-color="#7D6438"/>
<stop offset="0.24" stop-color="#7D6438"/>
<stop offset="0.34" stop-color="#8B7244"/>
<stop offset="0.55" stop-color="#B19766"/>
<stop offset="0.84" stop-color="#EED29D"/>
<stop offset="0.88" stop-color="#F7DBA5"/>
<stop offset="1" stop-color="#F7DBA5"/>
</linearGradient>
<linearGradient id="paint8_linear_580_309" x1="160.434" y1="252.973" x2="160.434" y2="268.889" gradientUnits="userSpaceOnUse">
<stop stop-color="#7D6438"/>
<stop offset="0.24" stop-color="#7D6438"/>
<stop offset="0.34" stop-color="#8B7244"/>
<stop offset="0.55" stop-color="#B19766"/>
<stop offset="0.84" stop-color="#EED29D"/>
<stop offset="0.88" stop-color="#F7DBA5"/>
<stop offset="1" stop-color="#F7DBA5"/>
</linearGradient>
<linearGradient id="paint9_linear_580_309" x1="165.29" y1="252.974" x2="165.29" y2="268.889" gradientUnits="userSpaceOnUse">
<stop stop-color="#7D6438"/>
<stop offset="0.24" stop-color="#7D6438"/>
<stop offset="0.34" stop-color="#8B7244"/>
<stop offset="0.55" stop-color="#B19766"/>
<stop offset="0.84" stop-color="#EED29D"/>
<stop offset="0.88" stop-color="#F7DBA5"/>
<stop offset="1" stop-color="#F7DBA5"/>
</linearGradient>
<linearGradient id="paint10_linear_580_309" x1="1235.79" y1="44.7763" x2="1285.5" y2="26.2547" gradientUnits="userSpaceOnUse">
<stop stop-color="#79653F"/>
<stop offset="0.4" stop-color="#A69167"/>
<stop offset="1" stop-color="#F2DCAB"/>
</linearGradient>
<linearGradient id="paint11_linear_580_309" x1="1261.93" y1="40.4783" x2="1392.69" y2="80.9435" gradientUnits="userSpaceOnUse">
<stop stop-color="#79653F"/>
<stop offset="0.21" stop-color="#79653F"/>
<stop offset="0.34" stop-color="#85714A"/>
<stop offset="0.58" stop-color="#A79268"/>
<stop offset="0.89" stop-color="#DEC899"/>
<stop offset="1" stop-color="#F2DCAB"/>
</linearGradient>
<linearGradient id="paint12_linear_580_309" x1="1272.16" y1="7.40253" x2="1402.92" y2="47.8678" gradientUnits="userSpaceOnUse">
<stop stop-color="#79653F"/>
<stop offset="0.21" stop-color="#79653F"/>
<stop offset="0.34" stop-color="#85714A"/>
<stop offset="0.58" stop-color="#A79268"/>
<stop offset="0.89" stop-color="#DEC899"/>
<stop offset="1" stop-color="#F2DCAB"/>
</linearGradient>
<clipPath id="clip0_580_309">
<rect width="1425" height="320.94" fill="white"/>
</clipPath>
<clipPath id="clip1_580_309">
<rect width="210" height="106.04" fill="white" transform="translate(0 214.891)"/>
</clipPath>
<clipPath id="clip2_580_309">
<rect width="210" height="82.82" fill="white" transform="translate(1215)"/>
</clipPath>
</defs>
</svg>
