<svg width="134" height="40" viewBox="0 0 134 40" fill="none" xmlns="http://www.w3.org/2000/svg">
<g clip-path="url(#clip0_580_604)">
<path d="M129 0H5C2.23858 0 0 2.23858 0 5V35C0 37.7614 2.23858 40 5 40H129C131.761 40 134 37.7614 134 35V5C134 2.23858 131.761 0 129 0Z" fill="black"/>
<path d="M129.037 0.8C131.339 0.8 133.206 2.6804 133.206 5V35C133.206 37.3196 131.339 39.2 129.037 39.2H4.96296C2.66055 39.2 0.794074 37.3196 0.794074 35V5C0.794074 2.6804 2.66055 0.8 4.96296 0.8H129.037ZM129.037 0H4.96296C2.22199 0 0 2.23858 0 5V35C0 37.7614 2.22199 40 4.96296 40H129.037C131.778 40 134 37.7614 134 35V5C134 2.23858 131.778 0 129.037 0Z" fill="#A6A6A6"/>
<path d="M67.6354 21.7511C65.3082 21.7621 63.4294 23.6698 63.4367 26.0144C63.444 28.359 65.3346 30.2547 67.6618 30.2511C69.9891 30.2474 71.8737 28.3457 71.8738 26.0011C71.8901 24.8655 71.4482 23.7718 70.6492 22.9706C69.8501 22.1694 68.7625 21.7293 67.6354 21.7511ZM67.6354 28.5811C66.5864 28.655 65.5993 28.0754 65.146 27.1196C64.6927 26.1637 64.8655 25.0258 65.5817 24.2502C66.2979 23.4745 67.4119 23.2187 68.3909 23.6052C69.37 23.9916 70.015 24.9418 70.0176 26.0011C70.0499 26.6638 69.8151 27.3115 69.3666 27.7973C68.9181 28.2831 68.2938 28.5657 67.6354 28.5811ZM58.3943 21.7511C56.0658 21.7566 54.1821 23.6619 54.1858 26.0078C54.1894 28.3537 56.079 30.2529 58.4076 30.2511C60.7361 30.2493 62.6228 28.347 62.6228 26.0011C62.6391 24.8655 62.1972 23.7718 61.3982 22.9706C60.5992 22.1694 59.5115 21.7293 58.3844 21.7511H58.3943ZM58.3943 28.5811C57.3449 28.6592 56.3548 28.0825 55.8983 27.1272C55.4419 26.1719 55.6119 25.0326 56.3271 24.2548C57.0422 23.477 58.1569 23.2192 59.1372 23.6048C60.1174 23.9904 60.7638 24.9409 60.7666 26.0011C60.7989 26.6638 60.5642 27.3115 60.1156 27.7973C59.6671 28.2831 59.0428 28.5657 58.3844 28.5811H58.3943ZM47.3865 23.0611V24.8611H51.6745C51.6073 25.7089 51.2575 26.5089 50.6819 27.1311C49.8144 28.0213 48.6139 28.5008 47.3766 28.4511C44.7452 28.4511 42.6121 26.3021 42.6121 23.6511C42.6121 21.0001 44.7452 18.8511 47.3766 18.8511C48.5853 18.8313 49.7526 19.2952 50.6223 20.1411L51.8829 18.8711C50.6967 17.661 49.0746 16.9864 47.3865 17.0011C44.9834 16.9069 42.7217 18.1448 41.4923 20.2272C40.263 22.3096 40.263 24.9027 41.4923 26.9851C42.7217 29.0674 44.9834 30.3053 47.3865 30.2111C49.1054 30.2894 50.774 29.6148 51.9623 28.3611C53.0023 27.21 53.5575 25.6969 53.5108 24.1411C53.514 23.7621 53.4808 23.3837 53.4115 23.0111L47.3865 23.0611ZM92.3609 24.4611C91.8309 22.8903 90.3935 21.8122 88.7478 21.7511C87.6504 21.749 86.601 22.2045 85.8488 23.0096C85.0967 23.8148 84.7089 24.8976 84.7775 26.0011C84.7531 27.1304 85.1856 28.2211 85.9756 29.0227C86.7656 29.8242 87.8451 30.2677 88.9662 30.2511C90.3765 30.2588 91.6965 29.5526 92.48 28.3711L91.0407 27.3711C90.6037 28.1051 89.8157 28.5533 88.9662 28.5511C88.0864 28.5849 87.2755 28.0733 86.9215 27.2611L92.5693 24.9111L92.3609 24.4611ZM86.6038 25.8811C86.5632 25.2563 86.7739 24.6413 87.1884 24.1747C87.603 23.7082 88.1865 23.4293 88.8074 23.4011C89.4619 23.3577 90.079 23.7118 90.3757 24.3011L86.6038 25.8811ZM82.018 30.0011H83.8742V17.5011H82.018V30.0011ZM78.9807 22.7011H78.9112C78.3454 22.0638 77.5366 21.7 76.6878 21.7011C74.4348 21.8112 72.6642 23.6836 72.6642 25.9561C72.6642 28.2286 74.4348 30.101 76.6878 30.2111C77.5393 30.2255 78.3534 29.8594 78.9112 29.2111H78.9708V29.8211C78.9708 31.4511 78.1072 32.3211 76.7176 32.3211C75.771 32.2988 74.9317 31.7021 74.5935 30.8111L72.9755 31.4911C73.5986 33.0179 75.0791 34.011 76.7176 34.0012C78.8914 34.0012 80.688 32.7111 80.688 29.5711V22.0011H78.9807V22.7011ZM76.8566 28.5811C75.5294 28.4633 74.5114 27.3434 74.5114 26.0011C74.5114 24.6588 75.5294 23.539 76.8566 23.4211C77.4979 23.4543 78.0988 23.7469 78.523 24.2326C78.9472 24.7183 79.1588 25.356 79.1098 26.0011C79.1645 26.6492 78.9536 27.2915 78.5261 27.7789C78.0986 28.2663 77.4917 28.5561 76.8466 28.5811H76.8566ZM101.056 17.5011H96.6191V30.0011H98.4752V25.2611H101.066C102.508 25.3655 103.887 24.6496 104.639 23.4061C105.392 22.1625 105.392 20.5997 104.639 19.3561C103.887 18.1126 102.508 17.3967 101.066 17.5011H101.056ZM101.056 23.5011H98.4653V19.2411H101.096C102.272 19.2411 103.225 20.2015 103.225 21.3861C103.225 22.5708 102.272 23.5311 101.096 23.5311L101.056 23.5011ZM112.501 21.7011C111.12 21.618 109.821 22.3682 109.195 23.6111L110.843 24.3011C111.175 23.6848 111.837 23.324 112.53 23.3811C113.006 23.3251 113.485 23.4641 113.858 23.7668C114.231 24.0696 114.468 24.5107 114.516 24.9911V25.1211C113.919 24.8031 113.255 24.6382 112.58 24.6411C110.803 24.6411 109.007 25.6411 109.007 27.4511C109.042 28.2308 109.389 28.9629 109.969 29.4809C110.548 29.9989 111.311 30.2586 112.084 30.2011C113.036 30.27 113.949 29.8098 114.466 29.0011H114.525V30.0011H116.312V25.1911C116.312 23.0011 114.664 21.7311 112.55 21.7311L112.501 21.7011ZM112.272 28.5511C111.667 28.5511 110.823 28.2411 110.823 27.4911C110.823 26.4911 111.875 26.1611 112.808 26.1611C113.398 26.1465 113.981 26.2915 114.496 26.5811C114.367 27.7005 113.44 28.5537 112.322 28.5811L112.272 28.5511ZM122.824 22.0011L120.699 27.4211H120.64L118.436 22.0011H116.451L119.756 29.5811L117.87 33.7911H119.806L124.888 22.0011H122.824ZM106.138 30.0011H107.994V17.5011H106.138V30.0011Z" fill="white"/>
<path d="M47.0685 10.2414C47.1026 10.9827 46.8335 11.7056 46.3241 12.2414C45.7548 12.8372 44.9607 13.1609 44.1404 13.1314C42.8821 13.1215 41.7523 12.3527 41.2735 11.1803C40.7946 10.008 41.0599 8.66076 41.9467 7.76144C42.523 7.16876 43.3171 6.84295 44.1404 6.86144C44.56 6.86003 44.9755 6.9451 45.3613 7.11144C45.7204 7.25739 46.0402 7.48699 46.2943 7.78144L45.7682 8.31144C45.3666 7.83011 44.7636 7.56713 44.1404 7.60144C43.5139 7.59834 42.9132 7.85252 42.4768 8.30537C42.0404 8.75823 41.806 9.37065 41.8276 10.0014C41.8143 10.9546 42.3716 11.8223 43.24 12.2007C44.1085 12.5791 45.1177 12.394 45.798 11.7314C46.1034 11.398 46.2796 10.9649 46.2943 10.5114H44.1404V9.79144H47.0288C47.0553 9.93995 47.0686 10.0905 47.0685 10.2414ZM51.6146 7.74144H48.9346V9.64144H51.3764V10.3614H48.9346V12.2614H51.6146V13.0014H48.1405V7.00144H51.6146V7.74144ZM54.8703 13.0014H54.106V7.74144H52.4384V7.00144H56.5776V7.74144H54.8703V13.0014ZM59.4958 13.0014V7.00144H60.2601V13.0014H59.4958ZM63.6547 13.0014H62.8904V7.74144H61.2229V7.00144H65.3124V7.74144H63.6547V13.0014ZM73.0645 12.2214C71.8565 13.4317 69.9051 13.4317 68.6971 12.2214C67.5261 10.9727 67.5261 9.0202 68.6971 7.77144C69.2748 7.18518 70.0609 6.85547 70.8808 6.85547C71.7008 6.85547 72.4868 7.18518 73.0645 7.77144C74.2405 9.0182 74.2405 10.9747 73.0645 12.2214ZM69.2629 11.7214C70.1575 12.619 71.6041 12.619 72.4987 11.7214C73.3774 10.7456 73.3774 9.25726 72.4987 8.28144C71.6041 7.38387 70.1575 7.38387 69.2629 8.28144C68.3842 9.25726 68.3842 10.7456 69.2629 11.7214ZM75.0199 13.0014V7.00144H75.953L78.8513 11.6714V7.00144H79.6156V13.0014H78.8216L75.7941 8.11144V13.0014H75.0199Z" fill="white" stroke="white" stroke-width="0.2"/>
<path d="M10.3635 7.53875C10.0399 7.92986 9.87666 8.43054 9.90688 8.93875V31.0588C9.87666 31.567 10.0399 32.0676 10.3635 32.4587L10.433 32.5288L22.7312 20.1487V19.8587L10.433 7.46875L10.3635 7.53875Z" fill="url(#paint0_linear_580_604)"/>
<path d="M26.8001 24.2788L22.7305 20.1487V19.8587L26.8001 15.7188L26.8894 15.7688L31.7631 18.5588C33.1527 19.3488 33.1527 20.6487 31.7631 21.4487L26.9093 24.2287L26.8001 24.2788Z" fill="url(#paint1_linear_580_604)"/>
<path d="M26.9197 24.22L22.731 20L10.3633 32.46C10.9476 32.9775 11.8149 33.0027 12.4279 32.52L26.9297 24.22" fill="url(#paint2_linear_580_604)"/>
<path d="M26.9199 15.7786L12.4181 7.47859C11.8051 6.99586 10.9379 7.02106 10.3535 7.53859L22.7311 19.9986L26.9199 15.7786Z" fill="url(#paint3_linear_580_604)"/>
<path opacity="0.2" d="M26.8006 24.1289L12.4179 32.3789C11.8294 32.8222 11.0213 32.8222 10.4328 32.3789L10.3633 32.4489L10.4328 32.5189C11.0202 32.9656 11.8305 32.9656 12.4179 32.5189L26.9197 24.2189L26.8006 24.1289Z" fill="black"/>
<path opacity="0.12" d="M10.3635 32.32C10.0399 31.9289 9.87666 31.4282 9.90688 30.92V31.07C9.87666 31.5782 10.0399 32.0789 10.3635 32.47L10.433 32.4L10.3635 32.32ZM31.7638 21.3L26.8008 24.13L26.8901 24.22L31.7638 21.44C32.3266 21.1736 32.7052 20.6244 32.7564 20C32.6432 20.5648 32.2766 21.045 31.7638 21.3Z" fill="black"/>
<path opacity="0.25" d="M12.4177 7.61847L31.7633 18.6985C32.2762 18.9535 32.6428 19.4336 32.7559 19.9985C32.7047 19.3741 32.3262 18.8249 31.7633 18.5585L12.4177 7.47847C11.028 6.68847 9.89648 7.34847 9.89648 8.94847V9.09847C9.92626 7.48847 11.038 6.82847 12.4177 7.61847Z" fill="white"/>
</g>
<defs>
<linearGradient id="paint0_linear_580_604" x1="790.749" y1="131.469" x2="-264.818" y2="1194.91" gradientUnits="userSpaceOnUse">
<stop stop-color="#00A0FF"/>
<stop offset="0.01" stop-color="#00A1FF"/>
<stop offset="0.26" stop-color="#00BEFF"/>
<stop offset="0.51" stop-color="#00D2FF"/>
<stop offset="0.76" stop-color="#00DFFF"/>
<stop offset="1" stop-color="#00E3FF"/>
</linearGradient>
<linearGradient id="paint1_linear_580_604" x1="1107.63" y1="443.719" x2="-1293.45" y2="443.719" gradientUnits="userSpaceOnUse">
<stop stop-color="#FFE000"/>
<stop offset="0.41" stop-color="#FFBD00"/>
<stop offset="0.78" stop-color="#FFA500"/>
<stop offset="1" stop-color="#FF9C00"/>
</linearGradient>
<linearGradient id="paint2_linear_580_604" x1="1438.7" y1="414.018" x2="-369.018" y2="2234.43" gradientUnits="userSpaceOnUse">
<stop stop-color="#FF3A44"/>
<stop offset="1" stop-color="#C31162"/>
</linearGradient>
<linearGradient id="paint3_linear_580_604" x1="-300.328" y1="-157.007" x2="506.546" y2="655.889" gradientUnits="userSpaceOnUse">
<stop stop-color="#32A071"/>
<stop offset="0.07" stop-color="#2DA771"/>
<stop offset="0.48" stop-color="#15CF74"/>
<stop offset="0.8" stop-color="#06E775"/>
<stop offset="1" stop-color="#00F076"/>
</linearGradient>
<clipPath id="clip0_580_604">
<rect width="134" height="40" fill="white"/>
</clipPath>
</defs>
</svg>
